<svg width="14.000000" height="24.000000" viewBox="0 0 14 24" fill="none" xmlns="http://www.w3.org/2000/svg" xmlns:xlink="http://www.w3.org/1999/xlink">
	<desc>
			Created with Pixso.
	</desc>
	<defs/>
	<path id="Union" d="M12 1L2 1C1.44 1 1 1.44 1 2L1 2.5L13 2.5L13 2C13 1.7 12.87 1.43 12.66 1.25C12.48 1.09 12.25 1 12 1ZM0 2.5L0 3.5L0 18.5L0 19.5L0 22C0 23.1 0.89 24 2 24L12 24C12.66 24 13.24 23.67 13.6 23.18C13.85 22.85 14 22.44 14 22L14 19.5L14 18.5L14 3.5L14 3L14 2C14 0.89 13.1 0 12 0L2 0C1.54 0 1.13 0.14 0.79 0.39C0.31 0.76 0 1.34 0 2L0 2.5ZM1 3.5L1 18.5L13 18.5L13 3.5L1 3.5ZM1 22L1 19.5L13 19.5L13 22C13 22.55 12.55 23 12 23L2 23C1.69 23 1.41 22.85 1.23 22.63C1.08 22.46 1 22.24 1 22ZM8 21C8 21.55 7.55 22 7 22C6.44 22 6 21.55 6 21C6 20.44 6.44 20 7 20C7.55 20 8 20.44 8 21Z" fill="#432EAB" fill-opacity="1.000000" fill-rule="evenodd"/>
</svg>
